# xmcd
#
# Track frame offsets: 
#        150
#        24198
#        57567
#        89264
#        133899
#        169552
#        191449
#
# Disc length: 2686 seconds
#
# Revision: 0
# Processed by: cddbd v1.5.2PL0 Copyright (c) Steve Scherf et al.
# Submitted via: ExactAudioCopy v0.99pb4
#
DISCID=550a7c07
DTITLE=Ctacik - Ego Generocity
DYEAR=2005
DGENRE=Electronic
TTITLE0=MON2II4
TTITLE1=cBITCHsL
TTITLE2=AutoYat
TTITLE3=HotHere
TTITLE4=Nr:ocs
TTITLE5=Pappa Drone
TTITLE6=In Birthday of Ilych
EXTD=
EXTT0=
EXTT1=
EXTT2=
EXTT3=
EXTT4=
EXTT5=
EXTT6=
PLAYORDER=
